<mxfile host="app.diagrams.net" agent="Mozilla/5.0 (Windows NT 10.0; Win64; x64) AppleWebKit/537.36 (KHTML, like Gecko) Chrome/135.0.0.0 Safari/537.36" version="26.2.12">
  <diagram name="第 1 页" id="n8B6XSN0NTUu7rNbF36Z">
    <mxGraphModel dx="1228" dy="661" grid="1" gridSize="10" guides="1" tooltips="1" connect="1" arrows="1" fold="1" page="1" pageScale="1" pageWidth="827" pageHeight="1169" math="0" shadow="0">
      <root>
        <mxCell id="0" />
        <mxCell id="1" parent="0" />
        <mxCell id="LlLc3zFQIQ4gQlbtM40e-1" value="&lt;font style=&quot;font-size: 18px;&quot;&gt;变更收开工记录&lt;/font&gt;" style="swimlane;html=1;childLayout=stackLayout;startSize=20;rounded=0;shadow=0;labelBackgroundColor=none;strokeWidth=1;fontFamily=Verdana;fontSize=8;align=center;" vertex="1" parent="1">
          <mxGeometry x="70" y="40" width="480" height="600" as="geometry" />
        </mxCell>
        <mxCell id="LlLc3zFQIQ4gQlbtM40e-2" value="接收请求" style="swimlane;html=1;startSize=20;" vertex="1" parent="LlLc3zFQIQ4gQlbtM40e-1">
          <mxGeometry y="20" width="160" height="580" as="geometry">
            <mxRectangle y="20" width="40" height="730" as="alternateBounds" />
          </mxGeometry>
        </mxCell>
        <mxCell id="LlLc3zFQIQ4gQlbtM40e-88" style="edgeStyle=orthogonalEdgeStyle;rounded=0;orthogonalLoop=1;jettySize=auto;html=1;exitX=0.5;exitY=1;exitDx=0;exitDy=0;entryX=0.5;entryY=0;entryDx=0;entryDy=0;" edge="1" parent="LlLc3zFQIQ4gQlbtM40e-2" source="LlLc3zFQIQ4gQlbtM40e-4" target="LlLc3zFQIQ4gQlbtM40e-10">
          <mxGeometry relative="1" as="geometry" />
        </mxCell>
        <mxCell id="LlLc3zFQIQ4gQlbtM40e-4" value="&lt;font style=&quot;font-size: 12px;&quot;&gt;开始&lt;/font&gt;" style="rounded=1;whiteSpace=wrap;html=1;shadow=0;labelBackgroundColor=none;strokeWidth=1;fontFamily=Verdana;fontSize=8;align=center;" vertex="1" parent="LlLc3zFQIQ4gQlbtM40e-2">
          <mxGeometry x="30" y="70" width="100" height="60" as="geometry" />
        </mxCell>
        <mxCell id="LlLc3zFQIQ4gQlbtM40e-7" value="&lt;span style=&quot;font-size: 12px;&quot;&gt;失败返回&lt;/span&gt;" style="whiteSpace=wrap;html=1;fontSize=8;fontFamily=Verdana;rounded=0;shadow=0;labelBackgroundColor=none;strokeWidth=1;" vertex="1" parent="LlLc3zFQIQ4gQlbtM40e-2">
          <mxGeometry x="30" y="480" width="100" height="60" as="geometry" />
        </mxCell>
        <mxCell id="LlLc3zFQIQ4gQlbtM40e-94" style="edgeStyle=orthogonalEdgeStyle;rounded=0;orthogonalLoop=1;jettySize=auto;html=1;exitX=0.5;exitY=1;exitDx=0;exitDy=0;entryX=0.5;entryY=0;entryDx=0;entryDy=0;" edge="1" parent="LlLc3zFQIQ4gQlbtM40e-2" source="LlLc3zFQIQ4gQlbtM40e-10" target="LlLc3zFQIQ4gQlbtM40e-7">
          <mxGeometry relative="1" as="geometry" />
        </mxCell>
        <mxCell id="LlLc3zFQIQ4gQlbtM40e-10" value="&lt;span style=&quot;font-size: 12px;&quot;&gt;请求入参data为空&lt;/span&gt;" style="rhombus;whiteSpace=wrap;html=1;rounded=0;shadow=0;labelBackgroundColor=none;strokeWidth=1;fontFamily=Verdana;fontSize=8;align=center;" vertex="1" parent="LlLc3zFQIQ4gQlbtM40e-2">
          <mxGeometry x="30" y="170" width="100" height="75" as="geometry" />
        </mxCell>
        <mxCell id="LlLc3zFQIQ4gQlbtM40e-11" value="调用工作票变更接口" style="swimlane;html=1;startSize=20;" vertex="1" parent="LlLc3zFQIQ4gQlbtM40e-1">
          <mxGeometry x="160" y="20" width="160" height="580" as="geometry" />
        </mxCell>
        <mxCell id="LlLc3zFQIQ4gQlbtM40e-12" style="edgeStyle=orthogonalEdgeStyle;rounded=0;orthogonalLoop=1;jettySize=auto;html=1;exitX=0.5;exitY=1;exitDx=0;exitDy=0;" edge="1" parent="LlLc3zFQIQ4gQlbtM40e-11" source="LlLc3zFQIQ4gQlbtM40e-13" target="LlLc3zFQIQ4gQlbtM40e-15">
          <mxGeometry relative="1" as="geometry" />
        </mxCell>
        <mxCell id="LlLc3zFQIQ4gQlbtM40e-13" value="&lt;span style=&quot;font-size: 12px;&quot;&gt;请求参数组装成工作票变更入参对象&lt;/span&gt;" style="whiteSpace=wrap;html=1;fontSize=8;fontFamily=Verdana;rounded=0;shadow=0;labelBackgroundColor=none;strokeWidth=1;" vertex="1" parent="LlLc3zFQIQ4gQlbtM40e-11">
          <mxGeometry x="30" y="160" width="100" height="60" as="geometry" />
        </mxCell>
        <mxCell id="LlLc3zFQIQ4gQlbtM40e-14" style="edgeStyle=orthogonalEdgeStyle;rounded=0;orthogonalLoop=1;jettySize=auto;html=1;exitX=0.5;exitY=1;exitDx=0;exitDy=0;entryX=0.5;entryY=0;entryDx=0;entryDy=0;" edge="1" parent="LlLc3zFQIQ4gQlbtM40e-11" source="LlLc3zFQIQ4gQlbtM40e-15" target="LlLc3zFQIQ4gQlbtM40e-17">
          <mxGeometry relative="1" as="geometry" />
        </mxCell>
        <mxCell id="LlLc3zFQIQ4gQlbtM40e-15" value="&lt;span style=&quot;font-size: 12px;&quot;&gt;获取用户信息给入参对象赋值修改人ID、修改人名称字段&lt;/span&gt;" style="whiteSpace=wrap;html=1;fontSize=8;fontFamily=Verdana;rounded=0;shadow=0;labelBackgroundColor=none;strokeWidth=1;" vertex="1" parent="LlLc3zFQIQ4gQlbtM40e-11">
          <mxGeometry x="30" y="260" width="100" height="60" as="geometry" />
        </mxCell>
        <mxCell id="LlLc3zFQIQ4gQlbtM40e-17" value="&lt;span style=&quot;font-size: 12px;&quot;&gt;调用工作票变更接口&lt;/span&gt;" style="whiteSpace=wrap;html=1;fontSize=8;fontFamily=Verdana;rounded=0;shadow=0;labelBackgroundColor=none;strokeWidth=1;" vertex="1" parent="LlLc3zFQIQ4gQlbtM40e-11">
          <mxGeometry x="30" y="360" width="100" height="60" as="geometry" />
        </mxCell>
        <mxCell id="LlLc3zFQIQ4gQlbtM40e-21" value="工作票变更处理" style="swimlane;html=1;startSize=20;" vertex="1" parent="LlLc3zFQIQ4gQlbtM40e-1">
          <mxGeometry x="320" y="20" width="160" height="580" as="geometry" />
        </mxCell>
        <mxCell id="LlLc3zFQIQ4gQlbtM40e-27" style="edgeStyle=orthogonalEdgeStyle;rounded=0;orthogonalLoop=1;jettySize=auto;html=1;exitX=0.5;exitY=1;exitDx=0;exitDy=0;" edge="1" parent="LlLc3zFQIQ4gQlbtM40e-21" source="LlLc3zFQIQ4gQlbtM40e-28" target="LlLc3zFQIQ4gQlbtM40e-93">
          <mxGeometry relative="1" as="geometry">
            <mxPoint x="80" y="370" as="targetPoint" />
          </mxGeometry>
        </mxCell>
        <mxCell id="LlLc3zFQIQ4gQlbtM40e-28" value="&lt;span style=&quot;font-size: 12px;&quot;&gt;保存收开工记录&lt;/span&gt;" style="whiteSpace=wrap;html=1;fontSize=8;fontFamily=Verdana;rounded=0;shadow=0;labelBackgroundColor=none;strokeWidth=1;" vertex="1" parent="LlLc3zFQIQ4gQlbtM40e-21">
          <mxGeometry x="30" y="267.5" width="100" height="60" as="geometry" />
        </mxCell>
        <mxCell id="LlLc3zFQIQ4gQlbtM40e-92" style="edgeStyle=orthogonalEdgeStyle;rounded=0;orthogonalLoop=1;jettySize=auto;html=1;exitX=0.5;exitY=1;exitDx=0;exitDy=0;" edge="1" parent="LlLc3zFQIQ4gQlbtM40e-21" source="LlLc3zFQIQ4gQlbtM40e-91" target="LlLc3zFQIQ4gQlbtM40e-28">
          <mxGeometry relative="1" as="geometry" />
        </mxCell>
        <mxCell id="LlLc3zFQIQ4gQlbtM40e-91" value="&lt;span style=&quot;font-size: 12px;&quot;&gt;更新工作票数据的更新人、更新时间&lt;/span&gt;" style="whiteSpace=wrap;html=1;fontSize=8;fontFamily=Verdana;rounded=0;shadow=0;labelBackgroundColor=none;strokeWidth=1;" vertex="1" parent="LlLc3zFQIQ4gQlbtM40e-21">
          <mxGeometry x="30" y="160" width="100" height="60" as="geometry" />
        </mxCell>
        <mxCell id="LlLc3zFQIQ4gQlbtM40e-93" value="&lt;span style=&quot;font-size: 12px;&quot;&gt;成功返回&lt;/span&gt;" style="whiteSpace=wrap;html=1;fontSize=8;fontFamily=Verdana;rounded=0;shadow=0;labelBackgroundColor=none;strokeWidth=1;" vertex="1" parent="LlLc3zFQIQ4gQlbtM40e-21">
          <mxGeometry x="30" y="480" width="100" height="60" as="geometry" />
        </mxCell>
        <mxCell id="LlLc3zFQIQ4gQlbtM40e-58" style="edgeStyle=orthogonalEdgeStyle;rounded=0;orthogonalLoop=1;jettySize=auto;html=1;exitX=1;exitY=0.5;exitDx=0;exitDy=0;entryX=0.5;entryY=0;entryDx=0;entryDy=0;" edge="1" parent="LlLc3zFQIQ4gQlbtM40e-1" source="LlLc3zFQIQ4gQlbtM40e-10" target="LlLc3zFQIQ4gQlbtM40e-13">
          <mxGeometry relative="1" as="geometry">
            <Array as="points">
              <mxPoint x="150" y="228" />
              <mxPoint x="150" y="140" />
              <mxPoint x="240" y="140" />
            </Array>
          </mxGeometry>
        </mxCell>
        <mxCell id="LlLc3zFQIQ4gQlbtM40e-59" value="&lt;font style=&quot;font-size: 10px;&quot;&gt;否&lt;/font&gt;" style="edgeLabel;html=1;align=center;verticalAlign=middle;resizable=0;points=[];" vertex="1" connectable="0" parent="LlLc3zFQIQ4gQlbtM40e-58">
          <mxGeometry x="-0.9316" relative="1" as="geometry">
            <mxPoint as="offset" />
          </mxGeometry>
        </mxCell>
        <mxCell id="LlLc3zFQIQ4gQlbtM40e-60" style="edgeStyle=orthogonalEdgeStyle;rounded=0;orthogonalLoop=1;jettySize=auto;html=1;exitX=0.5;exitY=1;exitDx=0;exitDy=0;entryX=0.5;entryY=0;entryDx=0;entryDy=0;" edge="1" parent="LlLc3zFQIQ4gQlbtM40e-1" source="LlLc3zFQIQ4gQlbtM40e-17" target="LlLc3zFQIQ4gQlbtM40e-91">
          <mxGeometry relative="1" as="geometry">
            <mxPoint x="400" y="172.5" as="targetPoint" />
            <Array as="points">
              <mxPoint x="240" y="480" />
              <mxPoint x="310" y="480" />
              <mxPoint x="310" y="140" />
              <mxPoint x="400" y="140" />
            </Array>
            <mxPoint x="240" y="650" as="sourcePoint" />
          </mxGeometry>
        </mxCell>
      </root>
    </mxGraphModel>
  </diagram>
</mxfile>
